<?xml version="1.0" encoding="UTF-8"?>
<!-- Generator: Adobe Illustrator 23.0.6, SVG Export Plug-In . SVG Version: 6.00 Build 0)  -->
<svg version="1.1" id="Calque_1" xmlns="http://www.w3.org/2000/svg" xmlns:xlink="http://www.w3.org/1999/xlink" x="0px" y="0px" viewBox="0 0 70 73" style="enable-background:new 0 0 70 73;" xml:space="preserve">
<style type="text/css">
	.st0{fill:#012B75;}
	.st1{fill:none;}
</style>
<g>
	<g>
		<g>
			<path class="st0" d="M22.4,69v-5.5c0-1-0.2-1.7-0.5-2.1s-0.9-0.6-1.6-0.6c-0.4,0-0.8,0.1-1.3,0.3c-0.4,0.2-0.8,0.5-1,0.8v7h-1.8     v-9.4h1.2l0.6,1.2c0.6-0.9,1.5-1.4,2.9-1.4c2.2,0,3.3,1.3,3.3,3.8V69H22.4L22.4,69z"/>
			<path class="st0" d="M35.1,64.5h-7.2c0,1.1,0.3,1.9,1,2.5c0.6,0.5,1.3,0.8,2.2,0.8c1,0,1.8-0.3,2.5-0.8l0.7,1.2     c-0.3,0.3-0.7,0.5-1.3,0.7c-0.7,0.2-1.5,0.4-2.4,0.4c-1.2,0-2.3-0.4-3.2-1.2c-1-0.9-1.5-2.1-1.5-3.6c0-1.6,0.5-2.8,1.5-3.7     c0.9-0.8,1.9-1.3,3.2-1.3c1.4,0,2.5,0.4,3.3,1.1c0.8,0.7,1.2,1.7,1.2,2.9C35.2,63.8,35.2,64.1,35.1,64.5z M30.8,60.8     c-0.8,0-1.4,0.2-2,0.7c-0.5,0.5-0.8,1-0.9,1.7h5.5c0-0.7-0.2-1.2-0.7-1.7C32.3,61.1,31.6,60.8,30.8,60.8z"/>
			<path class="st0" d="M37.7,60.9h-1.2v-1.3h1.2v-2l1.8-0.6v2.6h2.7v1.3h-2.7v4.7c0,0.8,0.1,1.4,0.4,1.7c0.3,0.3,0.7,0.5,1.4,0.5     c0.5,0,0.9-0.1,1.4-0.3L43,69c-0.7,0.2-1.5,0.3-2.4,0.3c-0.8,0-1.4-0.3-2-0.8c-0.5-0.6-0.8-1.2-0.8-2.1L37.7,60.9L37.7,60.9z"/>
			<path class="st0" d="M44.8,64.6V63h4v1.5L44.8,64.6L44.8,64.6z"/>
			<path class="st0" d="M57.7,69v-5.5c0-1-0.2-1.7-0.5-2.1s-0.9-0.6-1.6-0.6c-0.4,0-0.8,0.1-1.3,0.3c-0.4,0.2-0.8,0.5-1,0.8v7h-1.8     v-9.4h1.2l0.6,1.2c0.6-0.9,1.5-1.4,2.8-1.4c2.2,0,3.3,1.3,3.3,3.8V69H57.7L57.7,69z"/>
			<path class="st0" d="M61.6,71.6l1-1.3c1,0.7,2,1,2.8,1s1.4-0.1,1.9-0.4s0.7-0.6,0.7-1c0-0.8-0.6-1.1-1.7-1.1     c-0.2,0-0.6,0-1.1,0.1s-1,0.1-1.3,0.1c-1.4,0-2.1-0.5-2.1-1.5c0-0.3,0.2-0.6,0.5-0.8c0.3-0.3,0.7-0.4,1.2-0.5     c-1.4-0.6-2.1-1.7-2.1-3.2c0-1,0.4-1.8,1.1-2.5c0.7-0.7,1.6-1,2.7-1c1,0,1.7,0.2,2.3,0.6l0.9-1l1.2,1l-1.1,0.8     c0.4,0.6,0.7,1.3,0.7,2.2s-0.3,1.7-0.9,2.4c-0.6,0.6-1.4,1-2.5,1.1l-1.5,0.1c-0.2,0-0.4,0.1-0.7,0.2s-0.4,0.2-0.4,0.4     c0,0.2,0.3,0.4,0.9,0.4c0.3,0,0.7,0,1.2-0.1c0.6-0.1,1-0.1,1.3-0.1c1,0,1.7,0.2,2.3,0.7c0.5,0.4,0.8,1.1,0.8,1.8     c0,0.9-0.4,1.6-1.2,2.1c-0.8,0.5-1.9,0.8-3.1,0.8c-0.6,0-1.3-0.1-2-0.3C62.6,72.1,62,71.9,61.6,71.6z M65.3,60.8     c-0.6,0-1.1,0.2-1.5,0.6c-0.4,0.4-0.6,0.9-0.6,1.5c0,0.7,0.2,1.2,0.6,1.6c0.4,0.4,0.9,0.6,1.5,0.6s1.1-0.2,1.5-0.6s0.5-1,0.5-1.6     s-0.2-1.1-0.6-1.5C66.4,61,65.9,60.8,65.3,60.8z"/>
		</g>
	</g>
	<g>
		<path class="st1" d="M46.6,19c-2.7-2.6-6.4-4-11.1-4c-4.9,0-8.5,1.4-11,4.2l-1.7-3.5h-6.6v37.2h9.2V26c0.9-1.1,2-2,3.6-2.7    c1.5-0.7,3-1.1,4.3-1.1c2.9,0,5,0.7,6.3,2.2s1.9,3.8,1.9,6.9v21.5h9.2V30.1C50.6,25.3,49.3,21.6,46.6,19z"/>
		<path class="st0" d="M39.5,24.4c-1.3-1.5-3.4-2.2-6.3-2.2c-1.3,0-2.8,0.4-4.3,1.1s-2.7,1.6-3.6,2.7v26.9h16.1V31.4    C41.5,28.2,40.8,25.9,39.5,24.4z"/>
		<path class="st0" d="M33.5,0.3C15.2,0.3,0.3,14.4,0.3,31.7c0,8.2,3.3,15.6,8.6,21.2h7.2V15.7h6.6l1.7,3.5c2.5-2.8,6.2-4.2,11-4.2    c4.7,0,8.4,1.3,11.1,4c2.7,2.6,4.1,6.3,4.1,11.1v22.8H58c5.4-5.6,8.6-13,8.6-21.2C66.7,14.4,51.8,0.3,33.5,0.3z"/>
	</g>
</g>
</svg>