<?xml version="1.0" encoding="utf-8"?>
<!-- Generator: Adobe Illustrator 26.1.0, SVG Export Plug-In . SVG Version: 6.00 Build 0)  -->
<svg version="1.1" id="a" xmlns="http://www.w3.org/2000/svg" xmlns:xlink="http://www.w3.org/1999/xlink" x="0px" y="0px"
	 viewBox="0 0 297.9 70.5" style="enable-background:new 0 0 297.9 70.5;" xml:space="preserve">
<style type="text/css">
	.st0{fill:#172676;}
</style>
<g>
	<path class="st0" d="M41.6,29.4c-1.7,0-3.5,0.5-5.5,1.4c-1.9,1-3.5,2.2-4.5,3.6v36.1H52V41.7c0-4.3-0.8-7.4-2.4-9.3
		S45.2,29.4,41.6,29.4z"/>
	<path class="st0" d="M41.9,0C18.7,0,0,18.7,0,41.9C0,53,4.3,63.1,11.4,70.5h8.5V20.6h8.4l2.1,4.7c3.2-3.7,7.8-5.6,14-5.6
		S55,21.5,58.5,25c3.4,3.6,5.2,8.5,5.2,14.9v30.6h8.7c7-7.5,11.4-17.6,11.4-28.7C83.7,18.7,65,0,41.9,0z"/>
</g>
<g>
	<path class="st0" d="M129,57V37c0-2.9-0.6-5.1-1.7-6.4c-1.1-1.4-3-2-5.5-2c-1.2,0-2.4,0.3-3.8,1c-1.3,0.7-2.4,1.5-3.1,2.5v25h-8.1
		V22.4h5.8l1.5,3.2c2.2-2.6,5.4-3.9,9.7-3.9c4.3,0,7.3,1.2,9.7,3.7s3.6,5.9,3.6,10.3V57H129z"/>
	<path class="st0" d="M175.9,42.2h-24.7c0.2,2.8,1.1,4.9,2.8,6.4s4.1,2.3,7,2.3c3.7,0,6.5-1,8.4-2.9l3.1,6.2
		c-2.8,2.3-7.1,3.5-12.7,3.5c-5.3,0-9.4-1.5-12.5-4.6s-4.6-7.4-4.6-12.9s1.7-9.8,5-13.2c3.4-3.4,7.4-5.1,12.1-5.1
		c5,0,9,1.5,12.1,4.5c3,3,4.5,6.8,4.5,11.4C176.6,38.7,176.3,40.2,175.9,42.2L175.9,42.2z M151.5,36.1h17c-0.6-5.1-3.4-7.6-8.4-7.6
		C155.5,28.5,152.6,31,151.5,36.1z"/>
	<path class="st0" d="M183.6,28.9h-4v-6.5h4v-7l8.1-3v10h9.5v6.5h-9.5V44c0,2.5,0.4,4.2,1.2,5.2s2.1,1.5,4.1,1.5s3.7-0.5,5.4-1.6
		v7.4c-1.9,0.6-4.5,1-8,1s-6.1-1-7.9-2.9c-1.8-1.9-2.8-4.7-2.8-8.3V28.9H183.6z"/>
	<path class="st0" d="M207,42.8l1.2-7.6h17.1l-1.2,7.6H207z"/>
	<path class="st0" d="M253.7,57V37c0-2.9-0.6-5.1-1.7-6.4c-1.1-1.4-3-2-5.5-2c-1.2,0-2.4,0.3-3.8,1c-1.3,0.7-2.4,1.5-3.1,2.5v25
		h-8.1V22.4h5.8l1.5,3.2c2.2-2.6,5.4-3.9,9.7-3.9s7.3,1.2,9.7,3.7s3.6,5.9,3.6,10.3V57H253.7L253.7,57z"/>
	<path class="st0" d="M267.2,65.8l5.1-6.3c2.8,2.6,6,3.9,9.4,3.9c2.3,0,4.2-0.3,5.7-1s2.3-1.6,2.3-2.8c0-2-1.7-3.1-5-3.1
		c-0.9,0-2.2,0.1-4,0.3s-3.1,0.3-4,0.3c-5.5,0-8.3-2-8.3-6c0-1.1,0.5-2.3,1.4-3.4c0.9-1.1,2-1.9,3.2-2.4c-3.9-2.6-5.9-6.2-5.9-10.9
		c0-3.7,1.4-6.8,4.1-9.2s6-3.6,10-3.6c3.1,0,5.7,0.6,7.8,1.7l3.2-3.7l5.6,5.1l-3.8,2.8c1.3,2,2,4.4,2,7.2c0,3.9-1.2,7.1-3.6,9.4
		c-2.4,2.4-5.4,3.5-9.1,3.5c-0.6,0-1.4-0.1-2.3-0.2l-1.3-0.2c-0.2,0-0.7,0.2-1.7,0.7s-1.5,0.9-1.5,1.4c0,0.9,0.7,1.3,2.2,1.3
		c0.7,0,1.8-0.2,3.4-0.5s2.9-0.5,4-0.5c7.8,0,11.8,3.1,11.8,9.4c0,3.5-1.6,6.2-4.7,8.2s-6.9,3-11.3,3
		C276.3,70.5,271.5,68.9,267.2,65.8L267.2,65.8z M275.3,34.6c0,2,0.6,3.7,1.7,4.9s2.6,1.9,4.6,1.9s3.4-0.6,4.4-1.8s1.5-2.9,1.5-5
		c0-1.7-0.6-3.2-1.7-4.4c-1.1-1.2-2.5-1.8-4.3-1.8s-3.4,0.6-4.5,1.7S275.3,32.7,275.3,34.6z"/>
</g>
</svg>
