<svg fill="none" height="107" viewBox="0 0 417 107" width="417" xmlns="http://www.w3.org/2000/svg"><g fill="#1b1512"><path d="m139.543 81.2108c-3.367 0-6.296-.5377-8.764-1.6008-2.467-1.0631-4.363-2.8471-5.663-5.3766-1.313-2.5294-1.957-5.9387-1.945-10.2277l.061-31.7464-9.894-.0244v-8.0282l9.906.0244 1.264-13.7836h8.204l-.024 13.7958 16.408.0245v8.0282l-16.421-.0244-.06 31.7463c0 3.5437.705 5.9387 2.127 7.1851s3.925 1.8696 7.523 1.8818h6.065l-.012 8.1504h-8.763z"/><path d="m177.829 82.6407c-4.351 0-8.144-.8798-11.401-2.6149-3.257-1.7352-5.761-4.4113-7.511-8.0405s-2.625-8.1382-2.613-13.5637l.06-34.1291h9.444l-.061 33.1271c0 5.731 1.216 10.0078 3.683 12.8305 2.468 2.835 5.98 4.2524 10.562 4.2524 3.148 0 5.98-.7576 8.484-2.2972 2.516-1.5397 4.509-3.7636 5.967-6.6597 1.471-2.896 2.2-6.4519 2.213-10.6799l.06-30.5121h9.444l-.109 56.9674h-8.545l-.547-9.9589c-1.725 3.5437-4.278 6.3053-7.657 8.2971s-7.195 2.9815-11.473 2.9693z"/><path d="m218.672 81.3576.146-81.3576h9.443l-.145 81.3699h-9.444z"/><path d="m317.835 82.9095c-4.57 0-8.387-.8309-11.462-2.4561s-5.348-3.7758-6.843-6.4519-2.236-5.5965-2.236-8.7614c0-3.8369 1.009-7.0995 2.99-9.7634 1.993-2.6639 4.801-4.6923 8.447-6.0853 3.634-1.3808 7.925-2.0774 12.871-2.0651l14.95.0244c0-3.5437-.535-6.5008-1.617-8.8714-1.081-2.3706-2.649-4.1668-4.715-5.3766-2.054-1.2097-4.619-1.8207-7.694-1.8207-3.598 0-6.709.892-9.334 2.7005-2.626 1.8085-4.242 4.4724-4.85 8.016h-9.662c.461-4.0813 1.835-7.4905 4.12-10.2399s5.202-4.8512 8.727-6.3175c3.524-1.4664 7.195-2.1873 11.023-2.1873 5.239 0 9.602.9775 13.09 2.9082 3.477 1.9307 6.077 4.6068 7.803 8.0405 1.714 3.4337 2.577 7.4783 2.565 12.1462l-.061 35.2534h-8.435l-.547-10.0689c-.753 1.5763-1.713 3.0671-2.868 4.4601-1.167 1.393-2.528 2.5905-4.108 3.6048-1.58 1.0142-3.355 1.8207-5.348 2.4194-1.981.5988-4.254.892-6.806.892zm1.47-8.016c2.626 0 5.008-.5376 7.147-1.6252 2.139-1.0875 3.95-2.5905 5.457-4.509 1.507-1.9184 2.65-4.0446 3.44-6.3786.79-2.3339 1.191-4.7778 1.191-7.3439v-.3422l-14.16-.0244c-3.67 0-6.636.4277-8.884 1.2831-2.249.8675-3.865 2.0651-4.838 3.6047-.972 1.5397-1.47 3.2993-1.47 5.2544 0 2.0285.461 3.8003 1.397 5.3155s2.322 2.6761 4.157 3.507 4.023 1.2464 6.575 1.2586z"/><path d="m358.998 106.493.145-81.8095h8.545l.765 9.2868c1.204-1.8085 2.735-3.5192 4.619-5.1322 1.872-1.613 4.108-2.9327 6.697-3.9469s5.603-1.5152 9.055-1.5152c5.542 0 10.355 1.3197 14.439 3.9224 4.084 2.6028 7.256 6.1587 9.529 10.6433 2.273 4.4845 3.415 9.629 3.403 15.4332 0 5.731-1.167 10.8265-3.452 15.2989-2.297 4.4846-5.506 7.9915-9.626 10.5454s-8.957 3.8248-14.5 3.8125c-4.57 0-8.593-.9531-12.081-2.8471-3.476-1.8818-6.15-4.5335-8.022-7.9183l-.061 34.2387h-9.443zm28.61-31.6972c3.671 0 6.928-.8921 9.785-2.7005 2.856-1.8085 5.08-4.3013 6.696-7.5028 1.617-3.2016 2.431-6.9407 2.431-11.242 0-4.3624-.79-8.1749-2.394-11.4131-1.604-3.2381-3.829-5.7676-6.673-7.5883s-6.101-2.7249-9.772-2.7249c-3.743 0-7.049.892-9.893 2.6883-2.856 1.8084-5.068 4.3257-6.648 7.5639-1.581 3.2381-2.371 7.0384-2.383 11.413 0 4.289.766 8.0404 2.334 11.2542 1.568 3.2137 3.768 5.7065 6.612 7.5272 2.844 1.8085 6.138 2.725 9.881 2.7372z"/></g><path clip-rule="evenodd" d="m47.4137 15.8942c-6.1818 8.4933-9.9672 15.534-12.5226 25.6921-.2969 1.1876-.5726 2.3752-.8165 3.5628-6.362-5.0155-10.6563-9.787-13.5405-14.0178.2439-1.177.5408-2.3434.8483-3.5309 1.4845-5.5456 3.0644-8.8115 5.6728-13.7315.2651-.4772.509-.9437.7635-1.3996.3605-.6363.7316-1.2725 1.1027-1.8769.2969-.4771.5832-.93306.8801-1.37841 1.0073-1.5481 2.0676-2.97956 3.1386-4.25198.8801-1.02853 2.0994-1.52689 3.34-1.52689.1591 0 .3287.02121.4878.03181.1166 0 .2227.03181.3393.05302.1485.0106.2757.06362.4241.09543.1273.03181.2651.08483.3924.14845.2757.09543.5407.24388.7952.40293.2227.14845.456.3287.668.54077.1273.12724.2439.26509.3605.39233.5832.73164 1.2406 1.55871 1.9193 2.4706.2438.32871.4877.64681.7316.99672.6998.94371 1.4314 1.95102 2.1843 3.01142.2757.3923.5408.7952.8164 1.2088.6787 1.0073 1.3467 2.0464 2.0147 3.1068z" fill="#ff6e30" fill-rule="evenodd"/><path clip-rule="evenodd" d="m35.6071 88.9326c-21.3234-2.3751-32.34029-19.8602-34.715445-31.8209-1.76016-8.9069-1.123958-22.7868 3.806605-32.1178.45595-.8483 1.17698-1.3678 1.97223-1.5799.73163-.1909 1.52689-.1166 2.21611.2121.73163.3393 1.3466.9755 1.6435 1.8874.7847 2.46 2.0783 5.5032 4.2202 8.9493 1.1345 1.8026 2.5024 3.7112 4.1459 5.7152 3.287 4.0081 7.7192 8.3343 13.6571 12.756-.0954.6998-.1908 1.3996-.2651 2.0994-.1908 1.6648-.3287 3.3507-.4029 5.0261-.4559 8.8538.4878 17.8668 2.8311 26.657.2121.7847.5196 1.5163.8907 2.1949z" fill="#ff6e30" fill-rule="evenodd"/><path clip-rule="evenodd" d="m81.115 50.5667c-.0849.615-.1909 1.2406-.3075 1.8344l-.0531.2969c-.0954.4347-.1802.8801-.2968 1.3148-.1591.6999-.3287 1.3997-.509 2.0783-.0212.0318-.0212.0636-.0318.0954-.1485.5726-.3075 1.124-.4878 1.6754-.3711 1.177-.7846 2.3433-1.2406 3.4779-.159.4241-.3393.8271-.5195 1.2406-.3393.8165-.7211 1.6117-1.1028 2.3964-.212.4347-.4347.8801-.6786 1.3148-.3393.6362-.6998 1.2724-1.0709 1.9086-.2439.403-.4878.8165-.7529 1.2088-.3711.5832-.7528 1.1558-1.1557 1.7284-.2757.4029-.5726.8164-.8589 1.2088-.3393.4771-.6998.9331-1.071 1.3784-.3605.456-.7316.9119-1.1239 1.3467-.3711.4347-.7634.88-1.1558 1.3042-.3393.3711-.6786.7316-1.0391 1.0709-.3287.3287-.6362.6468-.9649.9437-.0318.0318-.0636.0636-.0954.0955-.0107.0212-.0319.0318-.0531.053-.3287.3075-.6468.6044-.9755.8801-.3287.3075-.6468.5832-.9755.8588-.0848.0637-.159.1273-.2439.1909-.3711.3287-.7528.615-1.1345.9119-.5408.4241-1.0922.8271-1.6647 1.2194-.0637.053-.1273.0954-.1909.1484-.4772.3287-.9437.6469-1.4315.9437-.1166.0849-.2226.1591-.3393.2333-.2969.1591-.5726.3393-.8588.5196-.2969.159-.5726.3287-.8483.4665-.4772.2651-.9331.509-1.3997.7317-.4559.2439-.9331.4559-1.3996.668-.2439.0954-.4772.2121-.721.3075-.2333.1166-.4772.2121-.7211.2969-1.9086.7634-3.8384 1.3466-5.7894 1.739-.509.0954-1.0073.1802-1.5163.265-.2227.0319-.4559.0531-.6786.0531-.2651 0-.509-.0212-.7634-.0637-.1167-.0212-.2439-.053-.3712-.0848-.1166-.0318-.2438-.0636-.3605-.1166-.1166-.0318-.2439-.0849-.3605-.1273-.159-.0636-.3287-.1484-.4878-.2651-.0636-.0212-.1272-.053-.1802-.0954-.1485-.0848-.2969-.1802-.4241-.2969-.0955-.0848-.1909-.1802-.2757-.2651-.1273-.0954-.2439-.2332-.3605-.3605-.1167-.1272-.2121-.2757-.3075-.4029-.1485-.2121-.2757-.4348-.3712-.6786-.1166-.2439-.212-.4878-.2756-.7529-.2227-.8483-.4348-1.6965-.6363-2.5554-.159-.668-.3074-1.336-.4347-2.0147-.0954-.4877-.1908-.9755-.2969-1.4844-.1908-1.0392-.3605-2.0995-.5196-3.1599-.0318-.1272-.053-.2438-.0636-.3711-.0212-.0954-.0318-.2121-.0318-.3075-.0636-.3711-.1166-.7528-.1484-1.124-.0318-.0954-.0318-.212-.053-.3075-.0637-.5195-.1273-1.0603-.1803-1.5799-.0318-.2332-.053-.4559-.0636-.6786-.053-.5726-.1167-1.1345-.1485-1.7071 0-.1273-.0212-.2439-.0212-.3605-.0106-.1485-.0318-.2969-.0318-.4348v-.0212c-.053-.7847-.0954-1.5587-.1166-2.3434-.0318-.9224-.053-1.8768-.053-2.8205v-.0848c0-.3923 0-.8165.0212-1.2088 0-.4241.0212-.8165.0318-1.2194-.0212-.1484 0-.2969 0-.4347.0636-1.6117.1802-3.2341.3393-4.867.0212-.1166.0318-.2333.053-.3393.0212-.2333.053-.456.0636-.668.0212-.2227.053-.4348.0849-.668.053-.456.1166-.9119.1802-1.3467.0212-.1166.0318-.2439.053-.3605.0849-.615.1803-1.2406.2969-1.8556.0212-.1591.053-.3075.0848-.4666.1167-.6468.2227-1.283.3606-1.9192.1484-.721.2969-1.4314.4559-2.1525.0318-.1166.053-.2332.0848-.3393.1167-.4241.2121-.8589.3287-1.3042.1803-.6786.3606-1.3678.5514-2.0465.1803-.615.3605-1.2194.5514-1.8344.0954-.3287.1909-.6362.2969-.9437.0954-.3287.2121-.6468.3287-.9649.159-.4771.3287-.9437.4877-1.4208.1591-.4242.3287-.8589.4878-1.3043.1803-.4559.3711-.9331.5514-1.3784v-.0212c.0318-.0954.0848-.1909.1272-.2969.1591-.4242.3605-.8483.5408-1.2724.2651-.615.5408-1.2194.827-1.8238.1167-.2333.2227-.4772.3394-.7211.1166-.2226.212-.4771.3393-.721.4559-.9437.9437-1.8874 1.4632-2.8311.2439-.4772.5196-.9437.7847-1.4209.053-.0848.0848-.1484.1272-.2226.0318-.0637.0636-.1167.0955-.1803.265-.4347.5407-.9119.8164-1.3466.2439-.403.4878-.8165.7528-1.2194.2439-.3711.4772-.7529.7211-1.124.2969-.4241.5726-.8483.8589-1.2724.0212-.0212.0212-.0318.0318-.053.3923-.5726.7846-1.1346 1.1875-1.6966.6362-.8907 1.3043-1.7601 1.9829-2.6402.3393-.4242.6786-.8483 1.0285-1.2724.3287-.403.668-.8165 1.0285-1.2194.3605-.4348.7317-.8801 1.124-1.3043.7316-.827 1.4951-1.6647 2.2903-2.47056.0318-.03181.0848-.08483.1166-.11664.0849-.09543.1591-.15905.2439-.24388.0318-.05301.0636-.08482.1167-.11663.053-.05302.0848-.09544.1272-.12725.1166-.11663.2333-.22267.3393-.36051.3393-.36052.6786-.69983 1.0603-1.06035.5514-.54077 1.124-1.07094 1.6966-1.61172.4559-.40293.9649-.72103 1.4845-.9331.159-.05302.3393-.09543.5089-.14845h.0318s.053-.02121.0849-.02121c.0636-.03181.1272-.05301.1908-.05301.1485-.03181.2969-.05302.4242-.06362.0636-.01061.1484-.03181.212-.01061.4772-.0212.9649.03181 1.4209.14845.1908.05302.3923.11664.5832.19086.1484.06362.3075.12724.4559.21207.2121.11664.4241.24388.615.39233.159.12724.3287.27569.4772.42414.3075.29689.5725.6362.7846 1.02853 6.8816 12.23636 11.9182 27.87646 9.7021 43.04996z" fill="#ff6e30" fill-rule="evenodd"/><path clip-rule="evenodd" d="m263.726 82.8115c-5.323 0-10.015-1.2586-14.099-3.7514s-7.28-5.9876-9.589-10.4721c-2.31-4.4846-3.464-9.7024-3.452-15.6533 0-6.0242 1.167-11.2542 3.452-15.7021 2.297-4.4357 5.518-7.8938 9.687-10.3744 4.168-2.4805 8.945-3.7147 14.329-3.7025 5.543 0 10.246 1.2586 14.099 3.7514s6.806 5.7554 8.86 9.7879c2.055 4.0324 3.075 8.4681 3.063 13.2826v2.3706c0 .8309-.036 1.7718-.121 2.8227l-44.127-.0815c.162 3.9794.99 7.3738 2.474 10.1748 1.678 3.1649 3.89 5.5477 6.612 7.1362 2.735 1.5886 5.676 2.3828 8.824 2.3951 3.975 0 7.256-.8676 9.845-2.6394 2.589-1.7597 4.449-4.1547 5.579-7.1607h9.322c-.911 3.4093-2.479 6.4519-4.74 9.1647-2.249 2.7127-5.044 4.8267-8.386 6.3663-3.343 1.5397-7.22 2.2973-11.632 2.2973zm-17.809-35.0656c.283-3.0846 1.072-5.7377 2.373-7.9594 1.653-2.8227 3.853-4.9611 6.588-6.4275 2.735-1.4663 5.712-2.1873 8.933-2.1873 4.789 0 8.775 1.4786 11.96 4.4235 3.184 2.9449 4.874 7.0262 5.092 12.2195z" fill="#1b1512" fill-rule="evenodd"/></svg>